<svg width="44" height="44" viewBox="0 0 44 44" fill="none" xmlns="http://www.w3.org/2000/svg">
    <path d="M43.932 36.3038L35.2542 3.90043C35.0014 2.95626 34.0397 2.20154 32.8587 2.51779L31.6785 2.83404C31.2064 2.96085 30.7977 3.32293 30.4517 3.92182C29.3799 4.45196 26.4565 5.23647 25.2572 5.31362C24.6583 4.96758 24.1228 4.85835 23.6508 4.98515L22.4698 5.3014C22.2849 5.35106 22.149 5.45036 22 5.53668V4.8889C22 3.53911 20.9053 2.44446 19.5556 2.44446H14.6667C13.3169 2.44446 12.2222 3.53911 12.2222 4.8889V9.77779H22L29.7657 40.0996C30.0185 41.0438 30.9803 41.7985 32.1613 41.4822L33.3415 41.166C33.8135 41.0392 34.2222 40.6771 34.5683 40.0782C35.6308 39.5527 38.5542 38.7643 39.7627 38.6864C40.3616 39.0324 40.8971 39.1417 41.3692 39.0149L42.5501 38.6986C43.7304 38.3824 44.1856 37.248 43.932 36.3038ZM33.6654 35.7645L26.6322 9.5005L31.3546 8.2355L38.3877 34.4995L33.6654 35.7645ZM0 31.7778H9.77778V12.2222H0V31.7778ZM7.33333 2.44446H2.44444C1.09465 2.44446 0 3.53911 0 4.8889V9.77779H9.77778V4.8889C9.77778 3.53911 8.68313 2.44446 7.33333 2.44446ZM0 39.1111C0 40.4609 1.09465 41.5556 2.44444 41.5556H7.33333C8.68313 41.5556 9.77778 40.4609 9.77778 39.1111V34.2222H0V39.1111ZM12.2222 31.7778H22V12.2222H12.2222V31.7778ZM12.2222 39.1111C12.2222 40.4609 13.3169 41.5556 14.6667 41.5556H19.5556C20.9053 41.5556 22 40.4609 22 39.1111V34.2222H12.2222V39.1111Z"
          fill="#1C92E0"/>
</svg>
