<svg width="44" height="44" viewBox="0 0 44 44" fill="none" xmlns="http://www.w3.org/2000/svg">
    <path d="M42.7855 14.9326L23.6084 9.04072C22.5634 8.71966 21.4359 8.71966 20.3916 9.04072L1.21378 14.9326C-0.404594 15.4297 -0.404594 17.5698 1.21378 18.0669L4.55709 19.094C3.82353 20.0008 3.37253 21.107 3.32784 22.3184C2.66578 22.6979 2.19966 23.3827 2.19966 24.2001C2.19966 24.9412 2.59016 25.5648 3.15253 25.9635L1.39734 33.8615C1.24472 34.5483 1.76722 35.2001 2.47053 35.2001H6.32809C7.03209 35.2001 7.55459 34.5483 7.40197 33.8615L5.64678 25.9635C6.20916 25.5648 6.59966 24.9412 6.59966 24.2001C6.59966 23.4047 6.15484 22.7392 5.52303 22.3528C5.57528 21.3202 6.10328 20.4072 6.94547 19.8283L20.3909 23.9595C21.0138 24.1506 22.2087 24.3892 23.6077 23.9595L42.7855 18.0676C44.4046 17.5698 44.4046 15.4303 42.7855 14.9326ZM24.254 26.0625C22.2925 26.6648 20.6212 26.332 19.7447 26.0625L9.77453 22.9997L8.79966 30.8001C8.79966 33.2304 14.7094 35.2001 21.9997 35.2001C29.2899 35.2001 35.1997 33.2304 35.1997 30.8001L34.2248 22.999L24.254 26.0625Z"
          fill="#1C92E0"/>
</svg>
