<svg width="20" height="20" viewBox="0 0 20 20" fill="none" xmlns="http://www.w3.org/2000/svg">
    <path d="M15 8.75V15.9375C15 16.1427 14.9596 16.3459 14.8811 16.5354C14.8025 16.725 14.6874 16.8973 14.5424 17.0424C14.3973 17.1874 14.225 17.3025 14.0354 17.3811C13.8459 17.4596 13.6427 17.5 13.4375 17.5H4.0625C3.6481 17.5 3.25067 17.3354 2.95765 17.0424C2.66462 16.7493 2.5 16.3519 2.5 15.9375V6.5625C2.5 6.1481 2.66462 5.75067 2.95765 5.45765C3.25067 5.16462 3.6481 5 4.0625 5H10.6047"
          stroke="#F7F9FA" stroke-width="1.6" stroke-linecap="round" stroke-linejoin="round"/>
    <path d="M18.1725 1.87516C18.1145 1.81143 18.0442 1.76011 17.9658 1.72432C17.8874 1.68853 17.8026 1.66901 17.7164 1.66693C17.6303 1.66486 17.5446 1.68027 17.4646 1.71224C17.3846 1.7442 17.3119 1.79207 17.2509 1.85293L16.7599 2.34158C16.7004 2.40113 16.667 2.48187 16.667 2.56605C16.667 2.65024 16.7004 2.73098 16.7599 2.79053L17.21 3.23988C17.2395 3.26953 17.2746 3.29305 17.3132 3.3091C17.3518 3.32515 17.3932 3.33341 17.435 3.33341C17.4769 3.33341 17.5183 3.32515 17.5569 3.3091C17.5955 3.29305 17.6306 3.26953 17.6601 3.23988L18.1387 2.76354C18.3809 2.52179 18.4035 2.12802 18.1725 1.87516Z"
          fill="#F7F9FA"/>
    <path d="M15.4029 3.46462L6.37423 12.4754C6.31949 12.5299 6.2797 12.5976 6.25869 12.6719L5.84107 13.9155C5.83107 13.9492 5.83036 13.9851 5.83902 14.0192C5.84768 14.0533 5.86539 14.0844 5.89028 14.1093C5.91518 14.1342 5.94633 14.1519 5.98045 14.1606C6.01457 14.1692 6.05039 14.1685 6.08414 14.1585L7.327 13.741C7.40135 13.72 7.46904 13.6802 7.52356 13.6255L16.5362 4.59771C16.6196 4.51346 16.6663 4.39971 16.6663 4.28119C16.6663 4.16266 16.6196 4.04892 16.5362 3.96466L16.0385 3.46462C15.9542 3.38049 15.8399 3.33325 15.7207 3.33325C15.6015 3.33325 15.4872 3.38049 15.4029 3.46462Z"
          fill="#F7F9FA"/>
</svg>
