<svg width="22" height="22" viewBox="0 0 22 22" fill="none" xmlns="http://www.w3.org/2000/svg">
    <path d="M4.37761 9.29708C4.37761 9.29708 3.27419 9.6765 5.94944 6.9824C6.90754 6.01755 8.13024 5.35847 9.46292 5.08852C10.7956 4.81856 12.1784 4.94986 13.4365 5.46579C14.6945 5.98173 15.7713 6.85914 16.5307 7.98707C17.2901 9.115 17.698 10.4428 17.7028 11.8025C17.7076 13.1623 17.309 14.4929 16.5576 15.6261C15.8061 16.7594 14.7355 17.6443 13.4811 18.1691C12.2267 18.6938 10.8448 18.8348 9.51027 18.5742C8.17573 18.3136 6.94843 17.6632 5.98357 16.7051"
          stroke="#F7F9FA" stroke-width="1.6" stroke-miterlimit="10" stroke-linecap="round"/>
    <path d="M3.52734 4.57739L3.54441 9.43872L8.40574 9.42165" stroke="#F7F9FA" stroke-width="1.6"
          stroke-linecap="round" stroke-linejoin="round"/>
</svg>
