<svg width="20" height="20" viewBox="0 0 20 20" fill="none" xmlns="http://www.w3.org/2000/svg">
    <path d="M13.333 1.66699C16.0944 1.66699 18.333 3.90557 18.333 6.66699V13.333C18.333 16.0944 16.0944 18.333 13.333 18.333H6.66699C3.90557 18.333 1.66699 16.0944 1.66699 13.333V6.66699C1.66699 3.90557 3.90557 1.66699 6.66699 1.66699H13.333ZM10 5.83301C7.69881 5.83301 5.83301 7.69881 5.83301 10C5.83301 12.3012 7.69881 14.167 10 14.167C12.3012 14.167 14.167 12.3012 14.167 10C14.167 7.69881 12.3012 5.83301 10 5.83301ZM10 7.5C11.3807 7.5 12.5 8.61929 12.5 10C12.5 11.3807 11.3807 12.5 10 12.5C8.61929 12.5 7.5 11.3807 7.5 10C7.5 8.61929 8.61929 7.5 10 7.5ZM15 4.16699C14.5398 4.16699 14.167 4.53976 14.167 5C14.167 5.46024 14.5398 5.83301 15 5.83301C15.4602 5.83301 15.833 5.46024 15.833 5C15.833 4.53976 15.4602 4.16699 15 4.16699Z"
          fill="#F7F9FA" fill-opacity="0.75"/>
</svg>
